<svg width="2000" height="400" viewBox="0 0 2000 400" fill="none" xmlns="http://www.w3.org/2000/svg">
<g clip-path="url(#clip0_206_2)">
<rect width="2000" height="400" rx="20" fill="white"/>
<path d="M922.108 270.159H916.426C916.351 269.576 916.195 269.049 915.961 268.58C915.726 268.11 915.415 267.708 915.029 267.375C914.642 267.042 914.184 266.788 913.654 266.614C913.131 266.432 912.551 266.341 911.915 266.341C910.786 266.341 909.813 266.617 908.995 267.17C908.184 267.723 907.559 268.523 907.12 269.568C906.688 270.614 906.472 271.879 906.472 273.364C906.472 274.909 906.692 276.205 907.131 277.25C907.578 278.288 908.203 279.072 909.006 279.602C909.817 280.125 910.775 280.386 911.881 280.386C912.502 280.386 913.067 280.307 913.574 280.148C914.089 279.989 914.54 279.758 914.926 279.455C915.32 279.144 915.642 278.769 915.892 278.33C916.15 277.883 916.328 277.379 916.426 276.818L922.108 276.852C922.01 277.883 921.711 278.898 921.211 279.898C920.718 280.898 920.04 281.811 919.176 282.636C918.313 283.455 917.26 284.106 916.017 284.591C914.782 285.076 913.366 285.318 911.767 285.318C909.661 285.318 907.775 284.856 906.108 283.932C904.449 283 903.139 281.644 902.176 279.864C901.214 278.083 900.733 275.917 900.733 273.364C900.733 270.803 901.222 268.633 902.199 266.852C903.176 265.072 904.498 263.72 906.165 262.795C907.832 261.871 909.699 261.409 911.767 261.409C913.176 261.409 914.479 261.606 915.676 262C916.873 262.386 917.926 262.955 918.836 263.705C919.745 264.447 920.483 265.36 921.051 266.443C921.62 267.527 921.972 268.765 922.108 270.159ZM929.447 285.295C928.334 285.295 927.345 285.11 926.482 284.739C925.625 284.36 924.947 283.792 924.447 283.034C923.955 282.269 923.709 281.311 923.709 280.159C923.709 279.189 923.879 278.371 924.22 277.705C924.561 277.038 925.031 276.496 925.629 276.08C926.228 275.663 926.917 275.348 927.697 275.136C928.478 274.917 929.311 274.769 930.197 274.693C931.19 274.602 931.989 274.508 932.595 274.409C933.201 274.303 933.641 274.155 933.913 273.966C934.194 273.769 934.334 273.492 934.334 273.136V273.08C934.334 272.496 934.133 272.045 933.732 271.727C933.33 271.409 932.788 271.25 932.107 271.25C931.372 271.25 930.781 271.409 930.334 271.727C929.887 272.045 929.603 272.485 929.482 273.045L924.357 272.864C924.508 271.803 924.898 270.856 925.527 270.023C926.163 269.182 927.035 268.523 928.141 268.045C929.254 267.561 930.591 267.318 932.152 267.318C933.266 267.318 934.292 267.451 935.232 267.716C936.171 267.973 936.989 268.352 937.686 268.852C938.383 269.345 938.921 269.951 939.3 270.67C939.686 271.39 939.879 272.212 939.879 273.136V285H934.652V282.568H934.516C934.205 283.159 933.807 283.659 933.322 284.068C932.845 284.477 932.281 284.784 931.629 284.989C930.985 285.193 930.258 285.295 929.447 285.295ZM931.163 281.659C931.762 281.659 932.3 281.538 932.777 281.295C933.262 281.053 933.648 280.72 933.936 280.295C934.224 279.864 934.368 279.364 934.368 278.795V277.136C934.209 277.22 934.016 277.295 933.788 277.364C933.569 277.432 933.326 277.496 933.061 277.557C932.796 277.617 932.523 277.67 932.243 277.716C931.963 277.761 931.694 277.803 931.436 277.841C930.913 277.924 930.466 278.053 930.095 278.227C929.732 278.402 929.451 278.629 929.254 278.909C929.065 279.182 928.97 279.508 928.97 279.886C928.97 280.462 929.175 280.902 929.584 281.205C930 281.508 930.527 281.659 931.163 281.659ZM948.852 285.25C947.564 285.25 946.394 284.917 945.341 284.25C944.288 283.583 943.447 282.583 942.818 281.25C942.189 279.917 941.875 278.261 941.875 276.284C941.875 274.231 942.2 272.542 942.852 271.216C943.504 269.89 944.356 268.909 945.409 268.273C946.469 267.636 947.61 267.318 948.829 267.318C949.746 267.318 950.53 267.477 951.182 267.795C951.833 268.106 952.371 268.508 952.795 269C953.219 269.492 953.541 270.004 953.761 270.534H953.875V261.727H959.432V285H953.932V282.17H953.761C953.526 282.708 953.193 283.212 952.761 283.682C952.329 284.152 951.788 284.53 951.136 284.818C950.492 285.106 949.731 285.25 948.852 285.25ZM950.784 280.92C951.458 280.92 952.034 280.731 952.511 280.352C952.988 279.966 953.356 279.424 953.613 278.727C953.871 278.03 954 277.212 954 276.273C954 275.318 953.871 274.496 953.613 273.807C953.363 273.117 952.996 272.587 952.511 272.216C952.034 271.845 951.458 271.659 950.784 271.659C950.094 271.659 949.511 271.848 949.034 272.227C948.557 272.606 948.193 273.14 947.943 273.83C947.7 274.519 947.579 275.333 947.579 276.273C947.579 277.212 947.704 278.03 947.954 278.727C948.204 279.424 948.564 279.966 949.034 280.352C949.511 280.731 950.094 280.92 950.784 280.92ZM967.066 285.295C965.953 285.295 964.964 285.11 964.1 284.739C963.244 284.36 962.566 283.792 962.066 283.034C961.574 282.269 961.328 281.311 961.328 280.159C961.328 279.189 961.498 278.371 961.839 277.705C962.18 277.038 962.65 276.496 963.248 276.08C963.846 275.663 964.536 275.348 965.316 275.136C966.096 274.917 966.93 274.769 967.816 274.693C968.809 274.602 969.608 274.508 970.214 274.409C970.82 274.303 971.259 274.155 971.532 273.966C971.812 273.769 971.953 273.492 971.953 273.136V273.08C971.953 272.496 971.752 272.045 971.35 271.727C970.949 271.409 970.407 271.25 969.725 271.25C968.99 271.25 968.4 271.409 967.953 271.727C967.506 272.045 967.221 272.485 967.1 273.045L961.975 272.864C962.127 271.803 962.517 270.856 963.146 270.023C963.782 269.182 964.653 268.523 965.759 268.045C966.873 267.561 968.21 267.318 969.771 267.318C970.884 267.318 971.911 267.451 972.85 267.716C973.79 267.973 974.608 268.352 975.305 268.852C976.002 269.345 976.54 269.951 976.918 270.67C977.305 271.39 977.498 272.212 977.498 273.136V285H972.271V282.568H972.134C971.824 283.159 971.426 283.659 970.941 284.068C970.464 284.477 969.9 284.784 969.248 284.989C968.604 285.193 967.877 285.295 967.066 285.295ZM968.782 281.659C969.381 281.659 969.918 281.538 970.396 281.295C970.881 281.053 971.267 280.72 971.555 280.295C971.843 279.864 971.987 279.364 971.987 278.795V277.136C971.828 277.22 971.634 277.295 971.407 277.364C971.187 277.432 970.945 277.496 970.68 277.557C970.415 277.617 970.142 277.67 969.862 277.716C969.581 277.761 969.312 277.803 969.055 277.841C968.532 277.924 968.085 278.053 967.714 278.227C967.35 278.402 967.07 278.629 966.873 278.909C966.684 279.182 966.589 279.508 966.589 279.886C966.589 280.462 966.793 280.902 967.203 281.205C967.619 281.508 968.146 281.659 968.782 281.659ZM995.334 272.875L990.232 273.011C990.179 272.648 990.035 272.326 989.8 272.045C989.565 271.758 989.259 271.534 988.88 271.375C988.509 271.208 988.077 271.125 987.584 271.125C986.94 271.125 986.391 271.254 985.937 271.511C985.49 271.769 985.27 272.117 985.278 272.557C985.27 272.898 985.406 273.193 985.687 273.443C985.975 273.693 986.486 273.894 987.221 274.045L990.584 274.682C992.327 275.015 993.622 275.568 994.471 276.341C995.327 277.114 995.759 278.136 995.766 279.409C995.759 280.606 995.403 281.648 994.698 282.534C994.001 283.42 993.047 284.11 991.834 284.602C990.622 285.087 989.236 285.33 987.675 285.33C985.183 285.33 983.217 284.818 981.778 283.795C980.346 282.765 979.528 281.386 979.323 279.659L984.812 279.523C984.933 280.159 985.247 280.644 985.755 280.977C986.262 281.311 986.91 281.477 987.698 281.477C988.41 281.477 988.99 281.345 989.437 281.08C989.884 280.814 990.111 280.462 990.118 280.023C990.111 279.629 989.937 279.314 989.596 279.08C989.255 278.837 988.721 278.648 987.993 278.511L984.948 277.932C983.198 277.614 981.895 277.027 981.039 276.17C980.183 275.307 979.759 274.208 979.766 272.875C979.759 271.708 980.069 270.712 980.698 269.886C981.327 269.053 982.221 268.417 983.38 267.977C984.539 267.538 985.906 267.318 987.482 267.318C989.846 267.318 991.709 267.814 993.073 268.807C994.437 269.792 995.19 271.148 995.334 272.875ZM1007.55 267.545V271.636H996.543V267.545H1007.55ZM998.85 263.364H1004.41V279.511C1004.41 279.852 1004.46 280.129 1004.57 280.341C1004.68 280.545 1004.84 280.693 1005.05 280.784C1005.27 280.867 1005.52 280.909 1005.82 280.909C1006.03 280.909 1006.25 280.89 1006.49 280.852C1006.73 280.807 1006.91 280.769 1007.03 280.739L1007.87 284.75C1007.61 284.826 1007.23 284.92 1006.75 285.034C1006.27 285.148 1005.7 285.22 1005.03 285.25C1003.73 285.311 1002.61 285.159 1001.68 284.795C1000.76 284.424 1000.05 283.848 999.554 283.068C999.069 282.288 998.835 281.307 998.85 280.125V263.364ZM1009.59 285V267.545H1014.99V270.727H1015.17C1015.49 269.576 1016.01 268.72 1016.73 268.159C1017.45 267.591 1018.28 267.307 1019.24 267.307C1019.49 267.307 1019.76 267.326 1020.03 267.364C1020.31 267.394 1020.56 267.443 1020.79 267.511V272.341C1020.53 272.25 1020.18 272.178 1019.75 272.125C1019.32 272.072 1018.95 272.045 1018.61 272.045C1017.95 272.045 1017.36 272.193 1016.83 272.489C1016.31 272.777 1015.89 273.182 1015.59 273.705C1015.29 274.22 1015.15 274.826 1015.15 275.523V285H1009.59ZM1029.51 285.33C1027.69 285.33 1026.11 284.97 1024.78 284.25C1023.47 283.523 1022.45 282.489 1021.74 281.148C1021.03 279.799 1020.68 278.197 1020.68 276.341C1020.68 274.538 1021.04 272.962 1021.75 271.614C1022.46 270.258 1023.47 269.205 1024.76 268.455C1026.06 267.697 1027.58 267.318 1029.34 267.318C1030.58 267.318 1031.72 267.511 1032.75 267.898C1033.78 268.284 1034.67 268.856 1035.42 269.614C1036.17 270.371 1036.75 271.307 1037.17 272.42C1037.59 273.527 1037.8 274.795 1037.8 276.227V277.614H1022.62V274.386H1032.62C1032.62 273.795 1032.48 273.269 1032.2 272.807C1031.93 272.345 1031.56 271.985 1031.08 271.727C1030.61 271.462 1030.07 271.33 1029.45 271.33C1028.83 271.33 1028.28 271.47 1027.78 271.75C1027.29 272.023 1026.9 272.398 1026.61 272.875C1026.33 273.345 1026.17 273.879 1026.16 274.477V277.761C1026.16 278.473 1026.3 279.098 1026.58 279.636C1026.86 280.167 1027.26 280.58 1027.77 280.875C1028.29 281.17 1028.9 281.318 1029.61 281.318C1030.11 281.318 1030.55 281.25 1030.95 281.114C1031.36 280.977 1031.7 280.777 1031.99 280.511C1032.28 280.246 1032.49 279.92 1032.64 279.534L1037.74 279.682C1037.53 280.826 1037.06 281.822 1036.34 282.67C1035.63 283.511 1034.69 284.167 1033.53 284.636C1032.37 285.098 1031.03 285.33 1029.51 285.33ZM1061.15 272.875L1056.04 273.011C1055.99 272.648 1055.85 272.326 1055.61 272.045C1055.38 271.758 1055.07 271.534 1054.69 271.375C1054.32 271.208 1053.89 271.125 1053.4 271.125C1052.75 271.125 1052.2 271.254 1051.75 271.511C1051.3 271.769 1051.08 272.117 1051.09 272.557C1051.08 272.898 1051.22 273.193 1051.5 273.443C1051.79 273.693 1052.3 273.894 1053.03 274.045L1056.4 274.682C1058.14 275.015 1059.43 275.568 1060.28 276.341C1061.14 277.114 1061.57 278.136 1061.58 279.409C1061.57 280.606 1061.22 281.648 1060.51 282.534C1059.81 283.42 1058.86 284.11 1057.65 284.602C1056.43 285.087 1055.05 285.33 1053.49 285.33C1051 285.33 1049.03 284.818 1047.59 283.795C1046.16 282.765 1045.34 281.386 1045.14 279.659L1050.62 279.523C1050.75 280.159 1051.06 280.644 1051.57 280.977C1052.07 281.311 1052.72 281.477 1053.51 281.477C1054.22 281.477 1054.8 281.345 1055.25 281.08C1055.7 280.814 1055.92 280.462 1055.93 280.023C1055.92 279.629 1055.75 279.314 1055.41 279.08C1055.07 278.837 1054.53 278.648 1053.81 278.511L1050.76 277.932C1049.01 277.614 1047.71 277.027 1046.85 276.17C1046 275.307 1045.57 274.208 1045.58 272.875C1045.57 271.708 1045.88 270.712 1046.51 269.886C1047.14 269.053 1048.03 268.417 1049.19 267.977C1050.35 267.538 1051.72 267.318 1053.29 267.318C1055.66 267.318 1057.52 267.814 1058.89 268.807C1060.25 269.792 1061 271.148 1061.15 272.875ZM1071.67 285.33C1069.85 285.33 1068.27 284.97 1066.95 284.25C1065.63 283.523 1064.61 282.489 1063.9 281.148C1063.2 279.799 1062.84 278.197 1062.84 276.341C1062.84 274.538 1063.2 272.962 1063.91 271.614C1064.62 270.258 1065.63 269.205 1066.92 268.455C1068.22 267.697 1069.75 267.318 1071.5 267.318C1072.75 267.318 1073.88 267.511 1074.91 267.898C1075.94 268.284 1076.83 268.856 1077.58 269.614C1078.33 270.371 1078.92 271.307 1079.33 272.42C1079.75 273.527 1079.96 274.795 1079.96 276.227V277.614H1064.79V274.386H1074.79C1074.78 273.795 1074.64 273.269 1074.37 272.807C1074.09 272.345 1073.72 271.985 1073.24 271.727C1072.77 271.462 1072.23 271.33 1071.62 271.33C1071 271.33 1070.44 271.47 1069.95 271.75C1069.45 272.023 1069.06 272.398 1068.78 272.875C1068.49 273.345 1068.34 273.879 1068.32 274.477V277.761C1068.32 278.473 1068.46 279.098 1068.74 279.636C1069.02 280.167 1069.42 280.58 1069.93 280.875C1070.45 281.17 1071.06 281.318 1071.78 281.318C1072.27 281.318 1072.72 281.25 1073.12 281.114C1073.52 280.977 1073.86 280.777 1074.15 280.511C1074.44 280.246 1074.65 279.92 1074.8 279.534L1079.9 279.682C1079.69 280.826 1079.22 281.822 1078.5 282.67C1077.79 283.511 1076.86 284.167 1075.7 284.636C1074.54 285.098 1073.2 285.33 1071.67 285.33ZM1093.26 277.466V267.545H1098.8V285H1093.51V281.75H1093.33C1092.94 282.818 1092.28 283.667 1091.35 284.295C1090.42 284.917 1089.31 285.227 1088 285.227C1086.81 285.227 1085.76 284.955 1084.86 284.409C1083.96 283.864 1083.26 283.102 1082.76 282.125C1082.26 281.14 1082 279.989 1082 278.67V267.545H1087.55V277.58C1087.56 278.527 1087.81 279.273 1088.3 279.818C1088.79 280.364 1089.47 280.636 1090.31 280.636C1090.87 280.636 1091.36 280.515 1091.8 280.273C1092.25 280.023 1092.6 279.663 1092.86 279.193C1093.12 278.716 1093.26 278.14 1093.26 277.466ZM880.183 330.545V306.545H885.683V309.534H885.854C886.081 309.004 886.403 308.492 886.82 308C887.244 307.508 887.782 307.106 888.433 306.795C889.092 306.477 889.88 306.318 890.797 306.318C892.009 306.318 893.142 306.636 894.195 307.273C895.255 307.909 896.111 308.89 896.763 310.216C897.414 311.542 897.74 313.231 897.74 315.284C897.74 317.261 897.426 318.917 896.797 320.25C896.176 321.583 895.335 322.583 894.274 323.25C893.221 323.917 892.051 324.25 890.763 324.25C889.884 324.25 889.123 324.106 888.479 323.818C887.835 323.53 887.293 323.152 886.854 322.682C886.422 322.212 886.089 321.708 885.854 321.17H885.74V330.545H880.183ZM885.626 315.273C885.626 316.212 885.751 317.03 886.001 317.727C886.259 318.424 886.626 318.966 887.104 319.352C887.589 319.731 888.168 319.92 888.842 319.92C889.524 319.92 890.104 319.731 890.581 319.352C891.058 318.966 891.418 318.424 891.661 317.727C891.911 317.03 892.036 316.212 892.036 315.273C892.036 314.333 891.911 313.519 891.661 312.83C891.418 312.14 891.058 311.606 890.581 311.227C890.111 310.848 889.532 310.659 888.842 310.659C888.161 310.659 887.581 310.845 887.104 311.216C886.626 311.587 886.259 312.117 886.001 312.807C885.751 313.496 885.626 314.318 885.626 315.273ZM899.852 324V306.545H905.25V309.727H905.432C905.75 308.576 906.269 307.72 906.988 307.159C907.708 306.591 908.545 306.307 909.5 306.307C909.757 306.307 910.022 306.326 910.295 306.364C910.568 306.394 910.822 306.443 911.057 306.511V311.341C910.791 311.25 910.443 311.178 910.011 311.125C909.587 311.072 909.208 311.045 908.875 311.045C908.216 311.045 907.621 311.193 907.091 311.489C906.568 311.777 906.155 312.182 905.852 312.705C905.557 313.22 905.409 313.826 905.409 314.523V324H899.852ZM912.521 324V306.545H918.078V324H912.521ZM915.305 304.511C914.525 304.511 913.854 304.254 913.293 303.739C912.733 303.216 912.453 302.587 912.453 301.852C912.453 301.125 912.733 300.504 913.293 299.989C913.854 299.466 914.525 299.205 915.305 299.205C916.093 299.205 916.763 299.466 917.316 299.989C917.877 300.504 918.157 301.125 918.157 301.852C918.157 302.587 917.877 303.216 917.316 303.739C916.763 304.254 916.093 304.511 915.305 304.511ZM920.814 324V306.545H926.099V309.75H926.292C926.655 308.689 927.269 307.852 928.133 307.239C928.996 306.625 930.027 306.318 931.224 306.318C932.436 306.318 933.474 306.629 934.337 307.25C935.201 307.871 935.75 308.705 935.985 309.75H936.167C936.493 308.712 937.129 307.883 938.076 307.261C939.023 306.633 940.14 306.318 941.428 306.318C943.08 306.318 944.421 306.848 945.451 307.909C946.481 308.962 946.996 310.409 946.996 312.25V324H941.439V313.523C941.439 312.652 941.216 311.989 940.769 311.534C940.322 311.072 939.743 310.841 939.03 310.841C938.265 310.841 937.663 311.091 937.224 311.591C936.792 312.083 936.576 312.746 936.576 313.58V324H931.235V313.466C931.235 312.655 931.015 312.015 930.576 311.545C930.136 311.076 929.557 310.841 928.837 310.841C928.352 310.841 927.924 310.958 927.553 311.193C927.182 311.42 926.89 311.746 926.678 312.17C926.474 312.595 926.371 313.095 926.371 313.67V324H920.814ZM957.799 324.33C955.973 324.33 954.397 323.97 953.071 323.25C951.753 322.523 950.738 321.489 950.026 320.148C949.321 318.799 948.969 317.197 948.969 315.341C948.969 313.538 949.325 311.962 950.037 310.614C950.749 309.258 951.753 308.205 953.049 307.455C954.344 306.697 955.871 306.318 957.628 306.318C958.871 306.318 960.007 306.511 961.037 306.898C962.068 307.284 962.958 307.856 963.708 308.614C964.458 309.371 965.041 310.307 965.458 311.42C965.874 312.527 966.083 313.795 966.083 315.227V316.614H950.912V313.386H960.912C960.905 312.795 960.764 312.269 960.492 311.807C960.219 311.345 959.844 310.985 959.367 310.727C958.897 310.462 958.355 310.33 957.742 310.33C957.121 310.33 956.564 310.47 956.071 310.75C955.579 311.023 955.189 311.398 954.901 311.875C954.613 312.345 954.461 312.879 954.446 313.477V316.761C954.446 317.473 954.586 318.098 954.867 318.636C955.147 319.167 955.545 319.58 956.06 319.875C956.575 320.17 957.189 320.318 957.901 320.318C958.393 320.318 958.84 320.25 959.242 320.114C959.643 319.977 959.988 319.777 960.276 319.511C960.564 319.246 960.78 318.92 960.924 318.534L966.026 318.682C965.814 319.826 965.348 320.822 964.628 321.67C963.916 322.511 962.98 323.167 961.821 323.636C960.662 324.098 959.321 324.33 957.799 324.33ZM968.121 324V306.545H973.678V324H968.121ZM970.905 304.511C970.125 304.511 969.454 304.254 968.893 303.739C968.333 303.216 968.053 302.587 968.053 301.852C968.053 301.125 968.333 300.504 968.893 299.989C969.454 299.466 970.125 299.205 970.905 299.205C971.693 299.205 972.363 299.466 972.916 299.989C973.477 300.504 973.757 301.125 973.757 301.852C973.757 302.587 973.477 303.216 972.916 303.739C972.363 304.254 971.693 304.511 970.905 304.511ZM976.414 324V306.545H981.812V309.727H981.994C982.312 308.576 982.831 307.72 983.551 307.159C984.271 306.591 985.108 306.307 986.062 306.307C986.32 306.307 986.585 306.326 986.858 306.364C987.13 306.394 987.384 306.443 987.619 306.511V311.341C987.354 311.25 987.005 311.178 986.574 311.125C986.149 311.072 985.771 311.045 985.437 311.045C984.778 311.045 984.183 311.193 983.653 311.489C983.13 311.777 982.718 312.182 982.414 312.705C982.119 313.22 981.971 313.826 981.971 314.523V324H976.414ZM996.325 324.33C994.491 324.33 992.916 323.955 991.597 323.205C990.287 322.447 989.275 321.394 988.563 320.045C987.859 318.689 987.507 317.117 987.507 315.33C987.507 313.534 987.859 311.962 988.563 310.614C989.275 309.258 990.287 308.205 991.597 307.455C992.916 306.697 994.491 306.318 996.325 306.318C998.158 306.318 999.73 306.697 1001.04 307.455C1002.36 308.205 1003.37 309.258 1004.07 310.614C1004.79 311.962 1005.14 313.534 1005.14 315.33C1005.14 317.117 1004.79 318.689 1004.07 320.045C1003.37 321.394 1002.36 322.447 1001.04 323.205C999.73 323.955 998.158 324.33 996.325 324.33ZM996.359 320.136C997.025 320.136 997.59 319.932 998.052 319.523C998.514 319.114 998.866 318.545 999.109 317.818C999.359 317.091 999.484 316.25 999.484 315.295C999.484 314.326 999.359 313.477 999.109 312.75C998.866 312.023 998.514 311.455 998.052 311.045C997.59 310.636 997.025 310.432 996.359 310.432C995.669 310.432 995.086 310.636 994.609 311.045C994.139 311.455 993.779 312.023 993.529 312.75C993.287 313.477 993.166 314.326 993.166 315.295C993.166 316.25 993.287 317.091 993.529 317.818C993.779 318.545 994.139 319.114 994.609 319.523C995.086 319.932 995.669 320.136 996.359 320.136ZM1034.39 309.159H1028.71C1028.63 308.576 1028.48 308.049 1028.24 307.58C1028.01 307.11 1027.7 306.708 1027.31 306.375C1026.92 306.042 1026.47 305.788 1025.93 305.614C1025.41 305.432 1024.83 305.341 1024.2 305.341C1023.07 305.341 1022.09 305.617 1021.28 306.17C1020.47 306.723 1019.84 307.523 1019.4 308.568C1018.97 309.614 1018.75 310.879 1018.75 312.364C1018.75 313.909 1018.97 315.205 1019.41 316.25C1019.86 317.288 1020.48 318.072 1021.29 318.602C1022.1 319.125 1023.06 319.386 1024.16 319.386C1024.78 319.386 1025.35 319.307 1025.86 319.148C1026.37 318.989 1026.82 318.758 1027.21 318.455C1027.6 318.144 1027.92 317.769 1028.17 317.33C1028.43 316.883 1028.61 316.379 1028.71 315.818L1034.39 315.852C1034.29 316.883 1033.99 317.898 1033.49 318.898C1033 319.898 1032.32 320.811 1031.46 321.636C1030.59 322.455 1029.54 323.106 1028.3 323.591C1027.06 324.076 1025.65 324.318 1024.05 324.318C1021.94 324.318 1020.06 323.856 1018.39 322.932C1016.73 322 1015.42 320.644 1014.46 318.864C1013.5 317.083 1013.01 314.917 1013.01 312.364C1013.01 309.803 1013.5 307.633 1014.48 305.852C1015.46 304.072 1016.78 302.72 1018.45 301.795C1020.11 300.871 1021.98 300.409 1024.05 300.409C1025.46 300.409 1026.76 300.606 1027.96 301C1029.15 301.386 1030.21 301.955 1031.12 302.705C1032.03 303.447 1032.76 304.36 1033.33 305.443C1033.9 306.527 1034.25 307.765 1034.39 309.159ZM1042.37 300.727V324H1036.81V300.727H1042.37ZM1045.1 324V306.545H1050.66V324H1045.1ZM1047.89 304.511C1047.11 304.511 1046.44 304.254 1045.87 303.739C1045.31 303.216 1045.03 302.587 1045.03 301.852C1045.03 301.125 1045.31 300.504 1045.87 299.989C1046.44 299.466 1047.11 299.205 1047.89 299.205C1048.67 299.205 1049.34 299.466 1049.9 299.989C1050.46 300.504 1050.74 301.125 1050.74 301.852C1050.74 302.587 1050.46 303.216 1049.9 303.739C1049.34 304.254 1048.67 304.511 1047.89 304.511ZM1061.55 324.33C1059.73 324.33 1058.15 323.97 1056.83 323.25C1055.51 322.523 1054.49 321.489 1053.78 320.148C1053.08 318.799 1052.73 317.197 1052.73 315.341C1052.73 313.538 1053.08 311.962 1053.79 310.614C1054.51 309.258 1055.51 308.205 1056.8 307.455C1058.1 306.697 1059.63 306.318 1061.38 306.318C1062.63 306.318 1063.76 306.511 1064.79 306.898C1065.82 307.284 1066.71 307.856 1067.46 308.614C1068.21 309.371 1068.8 310.307 1069.21 311.42C1069.63 312.527 1069.84 313.795 1069.84 315.227V316.614H1054.67V313.386H1064.67C1064.66 312.795 1064.52 312.269 1064.25 311.807C1063.98 311.345 1063.6 310.985 1063.12 310.727C1062.65 310.462 1062.11 310.33 1061.5 310.33C1060.88 310.33 1060.32 310.47 1059.83 310.75C1059.34 311.023 1058.94 311.398 1058.66 311.875C1058.37 312.345 1058.22 312.879 1058.2 313.477V316.761C1058.2 317.473 1058.34 318.098 1058.62 318.636C1058.9 319.167 1059.3 319.58 1059.82 319.875C1060.33 320.17 1060.94 320.318 1061.66 320.318C1062.15 320.318 1062.6 320.25 1063 320.114C1063.4 319.977 1063.74 319.777 1064.03 319.511C1064.32 319.246 1064.54 318.92 1064.68 318.534L1069.78 318.682C1069.57 319.826 1069.1 320.822 1068.38 321.67C1067.67 322.511 1066.74 323.167 1065.58 323.636C1064.42 324.098 1063.08 324.33 1061.55 324.33ZM1077.43 314.045V324H1071.88V306.545H1077.16V309.75H1077.35C1077.74 308.682 1078.4 307.845 1079.33 307.239C1080.26 306.625 1081.37 306.318 1082.66 306.318C1083.89 306.318 1084.95 306.595 1085.85 307.148C1086.76 307.693 1087.47 308.458 1087.97 309.443C1088.48 310.42 1088.73 311.564 1088.72 312.875V324H1083.16V313.966C1083.17 312.996 1082.92 312.239 1082.42 311.693C1081.93 311.148 1081.24 310.875 1080.37 310.875C1079.78 310.875 1079.27 311.004 1078.82 311.261C1078.38 311.511 1078.04 311.871 1077.8 312.341C1077.56 312.811 1077.44 313.379 1077.43 314.045ZM1101.21 306.545V310.636H1090.2V306.545H1101.21ZM1092.51 302.364H1098.06V318.511C1098.06 318.852 1098.12 319.129 1098.22 319.341C1098.34 319.545 1098.5 319.693 1098.71 319.784C1098.92 319.867 1099.18 319.909 1099.47 319.909C1099.68 319.909 1099.91 319.89 1100.14 319.852C1100.38 319.807 1100.57 319.769 1100.69 319.739L1101.53 323.75C1101.26 323.826 1100.89 323.92 1100.4 324.034C1099.93 324.148 1099.35 324.22 1098.69 324.25C1097.38 324.311 1096.27 324.159 1095.34 323.795C1094.41 323.424 1093.7 322.848 1093.21 322.068C1092.73 321.288 1092.49 320.307 1092.51 319.125V302.364ZM1111.22 324.33C1109.39 324.33 1107.82 323.97 1106.49 323.25C1105.17 322.523 1104.16 321.489 1103.44 320.148C1102.74 318.799 1102.39 317.197 1102.39 315.341C1102.39 313.538 1102.74 311.962 1103.46 310.614C1104.17 309.258 1105.17 308.205 1106.47 307.455C1107.76 306.697 1109.29 306.318 1111.05 306.318C1112.29 306.318 1113.43 306.511 1114.46 306.898C1115.49 307.284 1116.38 307.856 1117.13 308.614C1117.88 309.371 1118.46 310.307 1118.88 311.42C1119.29 312.527 1119.5 313.795 1119.5 315.227V316.614H1104.33V313.386H1114.33C1114.32 312.795 1114.18 312.269 1113.91 311.807C1113.64 311.345 1113.26 310.985 1112.79 310.727C1112.32 310.462 1111.77 310.33 1111.16 310.33C1110.54 310.33 1109.98 310.47 1109.49 310.75C1109 311.023 1108.61 311.398 1108.32 311.875C1108.03 312.345 1107.88 312.879 1107.87 313.477V316.761C1107.87 317.473 1108.01 318.098 1108.29 318.636C1108.57 319.167 1108.96 319.58 1109.48 319.875C1109.99 320.17 1110.61 320.318 1111.32 320.318C1111.81 320.318 1112.26 320.25 1112.66 320.114C1113.06 319.977 1113.41 319.777 1113.69 319.511C1113.98 319.246 1114.2 318.92 1114.34 318.534L1119.44 318.682C1119.23 319.826 1118.77 320.822 1118.05 321.67C1117.33 322.511 1116.4 323.167 1115.24 323.636C1114.08 324.098 1112.74 324.33 1111.22 324.33Z" fill="#5A5A5A"/>
<path d="M640 -73.1412C628.481 139.333 335.51 99.3195 209.956 141.795C52.7841 194.968 -155 371.171 -155 238.648C-155 106.126 77.4162 -128.871 209.956 -128.871C342.496 -128.871 640 -205.663 640 -73.1412Z" fill="url(#paint0_linear_206_2)"/>
<path d="M1314 483.719C1325.68 267.364 1622.7 308.108 1749.99 264.857C1909.34 210.713 2120 31.2921 2120 166.235C2120 301.178 1884.37 540.467 1749.99 540.467C1615.62 540.467 1314 618.662 1314 483.719Z" fill="url(#paint1_linear_206_2)"/>
<rect x="907" y="90" width="186" height="136" rx="10" fill="url(#paint2_linear_206_2)"/>
<rect x="925" y="68" width="150" height="14" rx="7" fill="url(#paint3_linear_206_2)"/>
<circle cx="1000" cy="133" r="25" fill="white"/>
<path d="M1050 212C1050 220 1027.61 220 1000 220C972.386 220 950 220 950 212C950 183.833 972.386 161 1000 161C1027.61 161 1050 183.833 1050 212Z" fill="white"/>
<rect x="925" y="234" width="150" height="14" rx="7" fill="url(#paint4_linear_206_2)"/>
</g>
<defs>
<linearGradient id="paint0_linear_206_2" x1="242.5" y1="-151" x2="242.5" y2="287" gradientUnits="userSpaceOnUse">
<stop stop-color="#0261A4"/>
<stop offset="0.34375" stop-color="#027FD7"/>
<stop offset="1" stop-color="#0F9AFE"/>
</linearGradient>
<linearGradient id="paint1_linear_206_2" x1="1717" y1="563" x2="1717" y2="117" gradientUnits="userSpaceOnUse">
<stop stop-color="#0261A4"/>
<stop offset="0.34375" stop-color="#027FD7"/>
<stop offset="1" stop-color="#0F9AFE"/>
</linearGradient>
<linearGradient id="paint2_linear_206_2" x1="1000" y1="90" x2="1000" y2="226" gradientUnits="userSpaceOnUse">
<stop stop-color="#0261A4"/>
<stop offset="0.34375" stop-color="#027FD7"/>
<stop offset="1" stop-color="#0F9AFE"/>
</linearGradient>
<linearGradient id="paint3_linear_206_2" x1="1000" y1="68" x2="1000" y2="82" gradientUnits="userSpaceOnUse">
<stop stop-color="#0261A4"/>
<stop offset="0.34375" stop-color="#027FD7"/>
<stop offset="1" stop-color="#0F9AFE"/>
</linearGradient>
<linearGradient id="paint4_linear_206_2" x1="1000" y1="234" x2="1000" y2="248" gradientUnits="userSpaceOnUse">
<stop stop-color="#0261A4"/>
<stop offset="0.34375" stop-color="#027FD7"/>
<stop offset="1" stop-color="#0F9AFE"/>
</linearGradient>
<clipPath id="clip0_206_2">
<rect width="2000" height="400" rx="20" fill="white"/>
</clipPath>
</defs>
</svg>
