<svg width="2000" height="400" viewBox="0 0 2000 400" fill="none" xmlns="http://www.w3.org/2000/svg">
<g clip-path="url(#clip0_206_2)">
<rect width="2000" height="400" rx="20" fill="white"/>
<path d="M922.108 270.159H916.426C916.351 269.576 916.195 269.049 915.961 268.58C915.726 268.11 915.415 267.708 915.029 267.375C914.642 267.042 914.184 266.788 913.654 266.614C913.131 266.432 912.551 266.341 911.915 266.341C910.786 266.341 909.813 266.617 908.995 267.17C908.184 267.723 907.559 268.523 907.12 269.568C906.688 270.614 906.472 271.879 906.472 273.364C906.472 274.909 906.692 276.205 907.131 277.25C907.578 278.288 908.203 279.072 909.006 279.602C909.817 280.125 910.775 280.386 911.881 280.386C912.502 280.386 913.067 280.307 913.574 280.148C914.089 279.989 914.54 279.758 914.926 279.455C915.32 279.144 915.642 278.769 915.892 278.33C916.15 277.883 916.328 277.379 916.426 276.818L922.108 276.852C922.01 277.883 921.711 278.898 921.211 279.898C920.718 280.898 920.04 281.811 919.176 282.636C918.313 283.455 917.26 284.106 916.017 284.591C914.782 285.076 913.366 285.318 911.767 285.318C909.661 285.318 907.775 284.856 906.108 283.932C904.449 283 903.139 281.644 902.176 279.864C901.214 278.083 900.733 275.917 900.733 273.364C900.733 270.803 901.222 268.633 902.199 266.852C903.176 265.072 904.498 263.72 906.165 262.795C907.832 261.871 909.699 261.409 911.767 261.409C913.176 261.409 914.479 261.606 915.676 262C916.873 262.386 917.926 262.955 918.836 263.705C919.745 264.447 920.483 265.36 921.051 266.443C921.62 267.527 921.972 268.765 922.108 270.159ZM929.447 285.295C928.334 285.295 927.345 285.11 926.482 284.739C925.625 284.36 924.947 283.792 924.447 283.034C923.955 282.269 923.709 281.311 923.709 280.159C923.709 279.189 923.879 278.371 924.22 277.705C924.561 277.038 925.031 276.496 925.629 276.08C926.228 275.663 926.917 275.348 927.697 275.136C928.478 274.917 929.311 274.769 930.197 274.693C931.19 274.602 931.989 274.508 932.595 274.409C933.201 274.303 933.641 274.155 933.913 273.966C934.194 273.769 934.334 273.492 934.334 273.136V273.08C934.334 272.496 934.133 272.045 933.732 271.727C933.33 271.409 932.788 271.25 932.107 271.25C931.372 271.25 930.781 271.409 930.334 271.727C929.887 272.045 929.603 272.485 929.482 273.045L924.357 272.864C924.508 271.803 924.898 270.856 925.527 270.023C926.163 269.182 927.035 268.523 928.141 268.045C929.254 267.561 930.591 267.318 932.152 267.318C933.266 267.318 934.292 267.451 935.232 267.716C936.171 267.973 936.989 268.352 937.686 268.852C938.383 269.345 938.921 269.951 939.3 270.67C939.686 271.39 939.879 272.212 939.879 273.136V285H934.652V282.568H934.516C934.205 283.159 933.807 283.659 933.322 284.068C932.845 284.477 932.281 284.784 931.629 284.989C930.985 285.193 930.258 285.295 929.447 285.295ZM931.163 281.659C931.762 281.659 932.3 281.538 932.777 281.295C933.262 281.053 933.648 280.72 933.936 280.295C934.224 279.864 934.368 279.364 934.368 278.795V277.136C934.209 277.22 934.016 277.295 933.788 277.364C933.569 277.432 933.326 277.496 933.061 277.557C932.796 277.617 932.523 277.67 932.243 277.716C931.963 277.761 931.694 277.803 931.436 277.841C930.913 277.924 930.466 278.053 930.095 278.227C929.732 278.402 929.451 278.629 929.254 278.909C929.065 279.182 928.97 279.508 928.97 279.886C928.97 280.462 929.175 280.902 929.584 281.205C930 281.508 930.527 281.659 931.163 281.659ZM948.852 285.25C947.564 285.25 946.394 284.917 945.341 284.25C944.288 283.583 943.447 282.583 942.818 281.25C942.189 279.917 941.875 278.261 941.875 276.284C941.875 274.231 942.2 272.542 942.852 271.216C943.504 269.89 944.356 268.909 945.409 268.273C946.469 267.636 947.61 267.318 948.829 267.318C949.746 267.318 950.53 267.477 951.182 267.795C951.833 268.106 952.371 268.508 952.795 269C953.219 269.492 953.541 270.004 953.761 270.534H953.875V261.727H959.432V285H953.932V282.17H953.761C953.526 282.708 953.193 283.212 952.761 283.682C952.329 284.152 951.788 284.53 951.136 284.818C950.492 285.106 949.731 285.25 948.852 285.25ZM950.784 280.92C951.458 280.92 952.034 280.731 952.511 280.352C952.988 279.966 953.356 279.424 953.613 278.727C953.871 278.03 954 277.212 954 276.273C954 275.318 953.871 274.496 953.613 273.807C953.363 273.117 952.996 272.587 952.511 272.216C952.034 271.845 951.458 271.659 950.784 271.659C950.094 271.659 949.511 271.848 949.034 272.227C948.557 272.606 948.193 273.14 947.943 273.83C947.7 274.519 947.579 275.333 947.579 276.273C947.579 277.212 947.704 278.03 947.954 278.727C948.204 279.424 948.564 279.966 949.034 280.352C949.511 280.731 950.094 280.92 950.784 280.92ZM967.066 285.295C965.953 285.295 964.964 285.11 964.1 284.739C963.244 284.36 962.566 283.792 962.066 283.034C961.574 282.269 961.328 281.311 961.328 280.159C961.328 279.189 961.498 278.371 961.839 277.705C962.18 277.038 962.65 276.496 963.248 276.08C963.846 275.663 964.536 275.348 965.316 275.136C966.096 274.917 966.93 274.769 967.816 274.693C968.809 274.602 969.608 274.508 970.214 274.409C970.82 274.303 971.259 274.155 971.532 273.966C971.812 273.769 971.953 273.492 971.953 273.136V273.08C971.953 272.496 971.752 272.045 971.35 271.727C970.949 271.409 970.407 271.25 969.725 271.25C968.99 271.25 968.4 271.409 967.953 271.727C967.506 272.045 967.221 272.485 967.1 273.045L961.975 272.864C962.127 271.803 962.517 270.856 963.146 270.023C963.782 269.182 964.653 268.523 965.759 268.045C966.873 267.561 968.21 267.318 969.771 267.318C970.884 267.318 971.911 267.451 972.85 267.716C973.79 267.973 974.608 268.352 975.305 268.852C976.002 269.345 976.54 269.951 976.918 270.67C977.305 271.39 977.498 272.212 977.498 273.136V285H972.271V282.568H972.134C971.824 283.159 971.426 283.659 970.941 284.068C970.464 284.477 969.9 284.784 969.248 284.989C968.604 285.193 967.877 285.295 967.066 285.295ZM968.782 281.659C969.381 281.659 969.918 281.538 970.396 281.295C970.881 281.053 971.267 280.72 971.555 280.295C971.843 279.864 971.987 279.364 971.987 278.795V277.136C971.828 277.22 971.634 277.295 971.407 277.364C971.187 277.432 970.945 277.496 970.68 277.557C970.415 277.617 970.142 277.67 969.862 277.716C969.581 277.761 969.312 277.803 969.055 277.841C968.532 277.924 968.085 278.053 967.714 278.227C967.35 278.402 967.07 278.629 966.873 278.909C966.684 279.182 966.589 279.508 966.589 279.886C966.589 280.462 966.793 280.902 967.203 281.205C967.619 281.508 968.146 281.659 968.782 281.659ZM995.334 272.875L990.232 273.011C990.179 272.648 990.035 272.326 989.8 272.045C989.565 271.758 989.259 271.534 988.88 271.375C988.509 271.208 988.077 271.125 987.584 271.125C986.94 271.125 986.391 271.254 985.937 271.511C985.49 271.769 985.27 272.117 985.278 272.557C985.27 272.898 985.406 273.193 985.687 273.443C985.975 273.693 986.486 273.894 987.221 274.045L990.584 274.682C992.327 275.015 993.622 275.568 994.471 276.341C995.327 277.114 995.759 278.136 995.766 279.409C995.759 280.606 995.403 281.648 994.698 282.534C994.001 283.42 993.047 284.11 991.834 284.602C990.622 285.087 989.236 285.33 987.675 285.33C985.183 285.33 983.217 284.818 981.778 283.795C980.346 282.765 979.528 281.386 979.323 279.659L984.812 279.523C984.933 280.159 985.247 280.644 985.755 280.977C986.262 281.311 986.91 281.477 987.698 281.477C988.41 281.477 988.99 281.345 989.437 281.08C989.884 280.814 990.111 280.462 990.118 280.023C990.111 279.629 989.937 279.314 989.596 279.08C989.255 278.837 988.721 278.648 987.993 278.511L984.948 277.932C983.198 277.614 981.895 277.027 981.039 276.17C980.183 275.307 979.759 274.208 979.766 272.875C979.759 271.708 980.069 270.712 980.698 269.886C981.327 269.053 982.221 268.417 983.38 267.977C984.539 267.538 985.906 267.318 987.482 267.318C989.846 267.318 991.709 267.814 993.073 268.807C994.437 269.792 995.19 271.148 995.334 272.875ZM1007.55 267.545V271.636H996.543V267.545H1007.55ZM998.85 263.364H1004.41V279.511C1004.41 279.852 1004.46 280.129 1004.57 280.341C1004.68 280.545 1004.84 280.693 1005.05 280.784C1005.27 280.867 1005.52 280.909 1005.82 280.909C1006.03 280.909 1006.25 280.89 1006.49 280.852C1006.73 280.807 1006.91 280.769 1007.03 280.739L1007.87 284.75C1007.61 284.826 1007.23 284.92 1006.75 285.034C1006.27 285.148 1005.7 285.22 1005.03 285.25C1003.73 285.311 1002.61 285.159 1001.68 284.795C1000.76 284.424 1000.05 283.848 999.554 283.068C999.069 282.288 998.835 281.307 998.85 280.125V263.364ZM1009.59 285V267.545H1014.99V270.727H1015.17C1015.49 269.576 1016.01 268.72 1016.73 268.159C1017.45 267.591 1018.28 267.307 1019.24 267.307C1019.49 267.307 1019.76 267.326 1020.03 267.364C1020.31 267.394 1020.56 267.443 1020.79 267.511V272.341C1020.53 272.25 1020.18 272.178 1019.75 272.125C1019.32 272.072 1018.95 272.045 1018.61 272.045C1017.95 272.045 1017.36 272.193 1016.83 272.489C1016.31 272.777 1015.89 273.182 1015.59 273.705C1015.29 274.22 1015.15 274.826 1015.15 275.523V285H1009.59ZM1029.51 285.33C1027.69 285.33 1026.11 284.97 1024.78 284.25C1023.47 283.523 1022.45 282.489 1021.74 281.148C1021.03 279.799 1020.68 278.197 1020.68 276.341C1020.68 274.538 1021.04 272.962 1021.75 271.614C1022.46 270.258 1023.47 269.205 1024.76 268.455C1026.06 267.697 1027.58 267.318 1029.34 267.318C1030.58 267.318 1031.72 267.511 1032.75 267.898C1033.78 268.284 1034.67 268.856 1035.42 269.614C1036.17 270.371 1036.75 271.307 1037.17 272.42C1037.59 273.527 1037.8 274.795 1037.8 276.227V277.614H1022.62V274.386H1032.62C1032.62 273.795 1032.48 273.269 1032.2 272.807C1031.93 272.345 1031.56 271.985 1031.08 271.727C1030.61 271.462 1030.07 271.33 1029.45 271.33C1028.83 271.33 1028.28 271.47 1027.78 271.75C1027.29 272.023 1026.9 272.398 1026.61 272.875C1026.33 273.345 1026.17 273.879 1026.16 274.477V277.761C1026.16 278.473 1026.3 279.098 1026.58 279.636C1026.86 280.167 1027.26 280.58 1027.77 280.875C1028.29 281.17 1028.9 281.318 1029.61 281.318C1030.11 281.318 1030.55 281.25 1030.95 281.114C1031.36 280.977 1031.7 280.777 1031.99 280.511C1032.28 280.246 1032.49 279.92 1032.64 279.534L1037.74 279.682C1037.53 280.826 1037.06 281.822 1036.34 282.67C1035.63 283.511 1034.69 284.167 1033.53 284.636C1032.37 285.098 1031.03 285.33 1029.51 285.33ZM1061.15 272.875L1056.04 273.011C1055.99 272.648 1055.85 272.326 1055.61 272.045C1055.38 271.758 1055.07 271.534 1054.69 271.375C1054.32 271.208 1053.89 271.125 1053.4 271.125C1052.75 271.125 1052.2 271.254 1051.75 271.511C1051.3 271.769 1051.08 272.117 1051.09 272.557C1051.08 272.898 1051.22 273.193 1051.5 273.443C1051.79 273.693 1052.3 273.894 1053.03 274.045L1056.4 274.682C1058.14 275.015 1059.43 275.568 1060.28 276.341C1061.14 277.114 1061.57 278.136 1061.58 279.409C1061.57 280.606 1061.22 281.648 1060.51 282.534C1059.81 283.42 1058.86 284.11 1057.65 284.602C1056.43 285.087 1055.05 285.33 1053.49 285.33C1051 285.33 1049.03 284.818 1047.59 283.795C1046.16 282.765 1045.34 281.386 1045.14 279.659L1050.62 279.523C1050.75 280.159 1051.06 280.644 1051.57 280.977C1052.07 281.311 1052.72 281.477 1053.51 281.477C1054.22 281.477 1054.8 281.345 1055.25 281.08C1055.7 280.814 1055.92 280.462 1055.93 280.023C1055.92 279.629 1055.75 279.314 1055.41 279.08C1055.07 278.837 1054.53 278.648 1053.81 278.511L1050.76 277.932C1049.01 277.614 1047.71 277.027 1046.85 276.17C1046 275.307 1045.57 274.208 1045.58 272.875C1045.57 271.708 1045.88 270.712 1046.51 269.886C1047.14 269.053 1048.03 268.417 1049.19 267.977C1050.35 267.538 1051.72 267.318 1053.29 267.318C1055.66 267.318 1057.52 267.814 1058.89 268.807C1060.25 269.792 1061 271.148 1061.15 272.875ZM1071.67 285.33C1069.85 285.33 1068.27 284.97 1066.95 284.25C1065.63 283.523 1064.61 282.489 1063.9 281.148C1063.2 279.799 1062.84 278.197 1062.84 276.341C1062.84 274.538 1063.2 272.962 1063.91 271.614C1064.62 270.258 1065.63 269.205 1066.92 268.455C1068.22 267.697 1069.75 267.318 1071.5 267.318C1072.75 267.318 1073.88 267.511 1074.91 267.898C1075.94 268.284 1076.83 268.856 1077.58 269.614C1078.33 270.371 1078.92 271.307 1079.33 272.42C1079.75 273.527 1079.96 274.795 1079.96 276.227V277.614H1064.79V274.386H1074.79C1074.78 273.795 1074.64 273.269 1074.37 272.807C1074.09 272.345 1073.72 271.985 1073.24 271.727C1072.77 271.462 1072.23 271.33 1071.62 271.33C1071 271.33 1070.44 271.47 1069.95 271.75C1069.45 272.023 1069.06 272.398 1068.78 272.875C1068.49 273.345 1068.34 273.879 1068.32 274.477V277.761C1068.32 278.473 1068.46 279.098 1068.74 279.636C1069.02 280.167 1069.42 280.58 1069.93 280.875C1070.45 281.17 1071.06 281.318 1071.78 281.318C1072.27 281.318 1072.72 281.25 1073.12 281.114C1073.52 280.977 1073.86 280.777 1074.15 280.511C1074.44 280.246 1074.65 279.92 1074.8 279.534L1079.9 279.682C1079.69 280.826 1079.22 281.822 1078.5 282.67C1077.79 283.511 1076.86 284.167 1075.7 284.636C1074.54 285.098 1073.2 285.33 1071.67 285.33ZM1093.26 277.466V267.545H1098.8V285H1093.51V281.75H1093.33C1092.94 282.818 1092.28 283.667 1091.35 284.295C1090.42 284.917 1089.31 285.227 1088 285.227C1086.81 285.227 1085.76 284.955 1084.86 284.409C1083.96 283.864 1083.26 283.102 1082.76 282.125C1082.26 281.14 1082 279.989 1082 278.67V267.545H1087.55V277.58C1087.56 278.527 1087.81 279.273 1088.3 279.818C1088.79 280.364 1089.47 280.636 1090.31 280.636C1090.87 280.636 1091.36 280.515 1091.8 280.273C1092.25 280.023 1092.6 279.663 1092.86 279.193C1093.12 278.716 1093.26 278.14 1093.26 277.466ZM873.933 330.545V306.545H879.433V309.534H879.604C879.831 309.004 880.153 308.492 880.57 308C880.994 307.508 881.532 307.106 882.183 306.795C882.842 306.477 883.63 306.318 884.547 306.318C885.759 306.318 886.892 306.636 887.945 307.273C889.005 307.909 889.861 308.89 890.513 310.216C891.164 311.542 891.49 313.231 891.49 315.284C891.49 317.261 891.176 318.917 890.547 320.25C889.926 321.583 889.085 322.583 888.024 323.25C886.971 323.917 885.801 324.25 884.513 324.25C883.634 324.25 882.873 324.106 882.229 323.818C881.585 323.53 881.043 323.152 880.604 322.682C880.172 322.212 879.839 321.708 879.604 321.17H879.49V330.545H873.933ZM879.376 315.273C879.376 316.212 879.501 317.03 879.751 317.727C880.009 318.424 880.376 318.966 880.854 319.352C881.339 319.731 881.918 319.92 882.592 319.92C883.274 319.92 883.854 319.731 884.331 319.352C884.808 318.966 885.168 318.424 885.411 317.727C885.661 317.03 885.786 316.212 885.786 315.273C885.786 314.333 885.661 313.519 885.411 312.83C885.168 312.14 884.808 311.606 884.331 311.227C883.861 310.848 883.282 310.659 882.592 310.659C881.911 310.659 881.331 310.845 880.854 311.216C880.376 311.587 880.009 312.117 879.751 312.807C879.501 313.496 879.376 314.318 879.376 315.273ZM893.602 324V306.545H899V309.727H899.182C899.5 308.576 900.019 307.72 900.738 307.159C901.458 306.591 902.295 306.307 903.25 306.307C903.507 306.307 903.772 306.326 904.045 306.364C904.318 306.394 904.572 306.443 904.807 306.511V311.341C904.541 311.25 904.193 311.178 903.761 311.125C903.337 311.072 902.958 311.045 902.625 311.045C901.966 311.045 901.371 311.193 900.841 311.489C900.318 311.777 899.905 312.182 899.602 312.705C899.307 313.22 899.159 313.826 899.159 314.523V324H893.602ZM906.271 324V306.545H911.828V324H906.271ZM909.055 304.511C908.275 304.511 907.604 304.254 907.043 303.739C906.483 303.216 906.203 302.587 906.203 301.852C906.203 301.125 906.483 300.504 907.043 299.989C907.604 299.466 908.275 299.205 909.055 299.205C909.843 299.205 910.513 299.466 911.066 299.989C911.627 300.504 911.907 301.125 911.907 301.852C911.907 302.587 911.627 303.216 911.066 303.739C910.513 304.254 909.843 304.511 909.055 304.511ZM914.564 324V306.545H919.849V309.75H920.042C920.405 308.689 921.019 307.852 921.883 307.239C922.746 306.625 923.777 306.318 924.974 306.318C926.186 306.318 927.224 306.629 928.087 307.25C928.951 307.871 929.5 308.705 929.735 309.75H929.917C930.243 308.712 930.879 307.883 931.826 307.261C932.773 306.633 933.89 306.318 935.178 306.318C936.83 306.318 938.171 306.848 939.201 307.909C940.231 308.962 940.746 310.409 940.746 312.25V324H935.189V313.523C935.189 312.652 934.966 311.989 934.519 311.534C934.072 311.072 933.493 310.841 932.78 310.841C932.015 310.841 931.413 311.091 930.974 311.591C930.542 312.083 930.326 312.746 930.326 313.58V324H924.985V313.466C924.985 312.655 924.765 312.015 924.326 311.545C923.886 311.076 923.307 310.841 922.587 310.841C922.102 310.841 921.674 310.958 921.303 311.193C920.932 311.42 920.64 311.746 920.428 312.17C920.224 312.595 920.121 313.095 920.121 313.67V324H914.564ZM951.549 324.33C949.723 324.33 948.147 323.97 946.821 323.25C945.503 322.523 944.488 321.489 943.776 320.148C943.071 318.799 942.719 317.197 942.719 315.341C942.719 313.538 943.075 311.962 943.787 310.614C944.499 309.258 945.503 308.205 946.799 307.455C948.094 306.697 949.621 306.318 951.378 306.318C952.621 306.318 953.757 306.511 954.787 306.898C955.818 307.284 956.708 307.856 957.458 308.614C958.208 309.371 958.791 310.307 959.208 311.42C959.624 312.527 959.833 313.795 959.833 315.227V316.614H944.662V313.386H954.662C954.655 312.795 954.514 312.269 954.242 311.807C953.969 311.345 953.594 310.985 953.117 310.727C952.647 310.462 952.105 310.33 951.492 310.33C950.871 310.33 950.314 310.47 949.821 310.75C949.329 311.023 948.939 311.398 948.651 311.875C948.363 312.345 948.211 312.879 948.196 313.477V316.761C948.196 317.473 948.336 318.098 948.617 318.636C948.897 319.167 949.295 319.58 949.81 319.875C950.325 320.17 950.939 320.318 951.651 320.318C952.143 320.318 952.59 320.25 952.992 320.114C953.393 319.977 953.738 319.777 954.026 319.511C954.314 319.246 954.53 318.92 954.674 318.534L959.776 318.682C959.564 319.826 959.098 320.822 958.378 321.67C957.666 322.511 956.73 323.167 955.571 323.636C954.412 324.098 953.071 324.33 951.549 324.33ZM961.871 324V306.545H967.428V324H961.871ZM964.655 304.511C963.875 304.511 963.204 304.254 962.643 303.739C962.083 303.216 961.803 302.587 961.803 301.852C961.803 301.125 962.083 300.504 962.643 299.989C963.204 299.466 963.875 299.205 964.655 299.205C965.443 299.205 966.113 299.466 966.666 299.989C967.227 300.504 967.507 301.125 967.507 301.852C967.507 302.587 967.227 303.216 966.666 303.739C966.113 304.254 965.443 304.511 964.655 304.511ZM970.164 324V306.545H975.562V309.727H975.744C976.062 308.576 976.581 307.72 977.301 307.159C978.021 306.591 978.858 306.307 979.812 306.307C980.07 306.307 980.335 306.326 980.608 306.364C980.88 306.394 981.134 306.443 981.369 306.511V311.341C981.104 311.25 980.755 311.178 980.324 311.125C979.899 311.072 979.521 311.045 979.187 311.045C978.528 311.045 977.933 311.193 977.403 311.489C976.88 311.777 976.468 312.182 976.164 312.705C975.869 313.22 975.721 313.826 975.721 314.523V324H970.164ZM990.075 324.33C988.241 324.33 986.666 323.955 985.347 323.205C984.037 322.447 983.025 321.394 982.313 320.045C981.609 318.689 981.257 317.117 981.257 315.33C981.257 313.534 981.609 311.962 982.313 310.614C983.025 309.258 984.037 308.205 985.347 307.455C986.666 306.697 988.241 306.318 990.075 306.318C991.908 306.318 993.48 306.697 994.791 307.455C996.109 308.205 997.12 309.258 997.825 310.614C998.537 311.962 998.893 313.534 998.893 315.33C998.893 317.117 998.537 318.689 997.825 320.045C997.12 321.394 996.109 322.447 994.791 323.205C993.48 323.955 991.908 324.33 990.075 324.33ZM990.109 320.136C990.775 320.136 991.34 319.932 991.802 319.523C992.264 319.114 992.616 318.545 992.859 317.818C993.109 317.091 993.234 316.25 993.234 315.295C993.234 314.326 993.109 313.477 992.859 312.75C992.616 312.023 992.264 311.455 991.802 311.045C991.34 310.636 990.775 310.432 990.109 310.432C989.419 310.432 988.836 310.636 988.359 311.045C987.889 311.455 987.529 312.023 987.279 312.75C987.037 313.477 986.916 314.326 986.916 315.295C986.916 316.25 987.037 317.091 987.279 317.818C987.529 318.545 987.889 319.114 988.359 319.523C988.836 319.932 989.419 320.136 990.109 320.136ZM1007.01 324V300.727H1016.63C1018.37 300.727 1019.87 301.068 1021.14 301.75C1022.41 302.424 1023.39 303.367 1024.08 304.58C1024.77 305.784 1025.12 307.186 1025.12 308.784C1025.12 310.39 1024.76 311.795 1024.06 313C1023.36 314.197 1022.37 315.125 1021.07 315.784C1019.78 316.443 1018.24 316.773 1016.46 316.773H1010.53V312.341H1015.41C1016.26 312.341 1016.97 312.193 1017.54 311.898C1018.11 311.602 1018.55 311.189 1018.84 310.659C1019.14 310.121 1019.29 309.496 1019.29 308.784C1019.29 308.064 1019.14 307.443 1018.84 306.92C1018.55 306.39 1018.11 305.981 1017.54 305.693C1016.96 305.405 1016.25 305.261 1015.41 305.261H1012.64V324H1007.01ZM1027.09 324V306.545H1032.49V309.727H1032.67C1032.99 308.576 1033.51 307.72 1034.23 307.159C1034.95 306.591 1035.78 306.307 1036.74 306.307C1036.99 306.307 1037.26 306.326 1037.53 306.364C1037.81 306.394 1038.06 306.443 1038.29 306.511V311.341C1038.03 311.25 1037.68 311.178 1037.25 311.125C1036.82 311.072 1036.45 311.045 1036.11 311.045C1035.45 311.045 1034.86 311.193 1034.33 311.489C1033.81 311.777 1033.39 312.182 1033.09 312.705C1032.79 313.22 1032.65 313.826 1032.65 314.523V324H1027.09ZM1047 324.33C1045.17 324.33 1043.59 323.955 1042.27 323.205C1040.96 322.447 1039.95 321.394 1039.24 320.045C1038.53 318.689 1038.18 317.117 1038.18 315.33C1038.18 313.534 1038.53 311.962 1039.24 310.614C1039.95 309.258 1040.96 308.205 1042.27 307.455C1043.59 306.697 1045.17 306.318 1047 306.318C1048.83 306.318 1050.41 306.697 1051.72 307.455C1053.03 308.205 1054.05 309.258 1054.75 310.614C1055.46 311.962 1055.82 313.534 1055.82 315.33C1055.82 317.117 1055.46 318.689 1054.75 320.045C1054.05 321.394 1053.03 322.447 1051.72 323.205C1050.41 323.955 1048.83 324.33 1047 324.33ZM1047.03 320.136C1047.7 320.136 1048.26 319.932 1048.73 319.523C1049.19 319.114 1049.54 318.545 1049.78 317.818C1050.03 317.091 1050.16 316.25 1050.16 315.295C1050.16 314.326 1050.03 313.477 1049.78 312.75C1049.54 312.023 1049.19 311.455 1048.73 311.045C1048.26 310.636 1047.7 310.432 1047.03 310.432C1046.34 310.432 1045.76 310.636 1045.28 311.045C1044.81 311.455 1044.45 312.023 1044.2 312.75C1043.96 313.477 1043.84 314.326 1043.84 315.295C1043.84 316.25 1043.96 317.091 1044.2 317.818C1044.45 318.545 1044.81 319.114 1045.28 319.523C1045.76 319.932 1046.34 320.136 1047.03 320.136ZM1064.24 324.25C1062.95 324.25 1061.78 323.917 1060.73 323.25C1059.68 322.583 1058.83 321.583 1058.21 320.25C1057.58 318.917 1057.26 317.261 1057.26 315.284C1057.26 313.231 1057.59 311.542 1058.24 310.216C1058.89 308.89 1059.74 307.909 1060.8 307.273C1061.86 306.636 1063 306.318 1064.22 306.318C1065.13 306.318 1065.92 306.477 1066.57 306.795C1067.22 307.106 1067.76 307.508 1068.18 308C1068.61 308.492 1068.93 309.004 1069.15 309.534H1069.26V300.727H1074.82V324H1069.32V321.17H1069.15C1068.91 321.708 1068.58 322.212 1068.15 322.682C1067.72 323.152 1067.18 323.53 1066.52 323.818C1065.88 324.106 1065.12 324.25 1064.24 324.25ZM1066.17 319.92C1066.85 319.92 1067.42 319.731 1067.9 319.352C1068.38 318.966 1068.74 318.424 1069 317.727C1069.26 317.03 1069.39 316.212 1069.39 315.273C1069.39 314.318 1069.26 313.496 1069 312.807C1068.75 312.117 1068.38 311.587 1067.9 311.216C1067.42 310.845 1066.85 310.659 1066.17 310.659C1065.48 310.659 1064.9 310.848 1064.42 311.227C1063.94 311.606 1063.58 312.14 1063.33 312.83C1063.09 313.519 1062.97 314.333 1062.97 315.273C1062.97 316.212 1063.09 317.03 1063.34 317.727C1063.59 318.424 1063.95 318.966 1064.42 319.352C1064.9 319.731 1065.48 319.92 1066.17 319.92ZM1088.79 316.466V306.545H1094.34V324H1089.04V320.75H1088.86C1088.48 321.818 1087.82 322.667 1086.89 323.295C1085.96 323.917 1084.84 324.227 1083.53 324.227C1082.34 324.227 1081.3 323.955 1080.4 323.409C1079.5 322.864 1078.79 322.102 1078.29 321.125C1077.79 320.14 1077.54 318.989 1077.53 317.67V306.545H1083.09V316.58C1083.1 317.527 1083.35 318.273 1083.84 318.818C1084.33 319.364 1085 319.636 1085.85 319.636C1086.4 319.636 1086.9 319.515 1087.34 319.273C1087.79 319.023 1088.14 318.663 1088.4 318.193C1088.66 317.716 1088.79 317.14 1088.79 316.466ZM1106.93 306.545V310.636H1095.92V306.545H1106.93ZM1098.22 302.364H1103.78V318.511C1103.78 318.852 1103.83 319.129 1103.94 319.341C1104.05 319.545 1104.22 319.693 1104.43 319.784C1104.64 319.867 1104.9 319.909 1105.19 319.909C1105.4 319.909 1105.63 319.89 1105.86 319.852C1106.1 319.807 1106.29 319.769 1106.41 319.739L1107.25 323.75C1106.98 323.826 1106.61 323.92 1106.12 324.034C1105.65 324.148 1105.07 324.22 1104.41 324.25C1103.1 324.311 1101.99 324.159 1101.05 323.795C1100.13 323.424 1099.42 322.848 1098.93 322.068C1098.44 321.288 1098.21 320.307 1098.22 319.125V302.364ZM1116.92 324.33C1115.09 324.33 1113.52 323.955 1112.2 323.205C1110.89 322.447 1109.88 321.394 1109.16 320.045C1108.46 318.689 1108.11 317.117 1108.11 315.33C1108.11 313.534 1108.46 311.962 1109.16 310.614C1109.88 309.258 1110.89 308.205 1112.2 307.455C1113.52 306.697 1115.09 306.318 1116.92 306.318C1118.76 306.318 1120.33 306.697 1121.64 307.455C1122.96 308.205 1123.97 309.258 1124.67 310.614C1125.39 311.962 1125.74 313.534 1125.74 315.33C1125.74 317.117 1125.39 318.689 1124.67 320.045C1123.97 321.394 1122.96 322.447 1121.64 323.205C1120.33 323.955 1118.76 324.33 1116.92 324.33ZM1116.96 320.136C1117.63 320.136 1118.19 319.932 1118.65 319.523C1119.11 319.114 1119.47 318.545 1119.71 317.818C1119.96 317.091 1120.08 316.25 1120.08 315.295C1120.08 314.326 1119.96 313.477 1119.71 312.75C1119.47 312.023 1119.11 311.455 1118.65 311.045C1118.19 310.636 1117.63 310.432 1116.96 310.432C1116.27 310.432 1115.69 310.636 1115.21 311.045C1114.74 311.455 1114.38 312.023 1114.13 312.75C1113.89 313.477 1113.77 314.326 1113.77 315.295C1113.77 316.25 1113.89 317.091 1114.13 317.818C1114.38 318.545 1114.74 319.114 1115.21 319.523C1115.69 319.932 1116.27 320.136 1116.96 320.136Z" fill="#5A5A5A"/>
<path d="M640 -73.1412C628.481 139.333 335.51 99.3195 209.956 141.795C52.7841 194.968 -155 371.171 -155 238.648C-155 106.126 77.4163 -128.871 209.956 -128.871C342.496 -128.871 640 -205.663 640 -73.1412Z" fill="url(#paint0_linear_206_2)"/>
<path d="M1314 483.719C1325.68 267.364 1622.7 308.108 1749.99 264.857C1909.34 210.713 2120 31.2921 2120 166.235C2120 301.178 1884.37 540.467 1749.99 540.467C1615.62 540.467 1314 618.662 1314 483.719Z" fill="url(#paint1_linear_206_2)"/>
<rect x="907" y="106" width="186" height="136" rx="10" fill="url(#paint2_linear_206_2)"/>
<rect x="897" y="69" width="206" height="57" rx="20" fill="white" stroke="url(#paint3_linear_206_2)" stroke-width="20" stroke-linejoin="round"/>
<rect x="953" y="155" width="93" height="31" rx="10" fill="white"/>
</g>
<defs>
<linearGradient id="paint0_linear_206_2" x1="242.5" y1="-151" x2="242.5" y2="287" gradientUnits="userSpaceOnUse">
<stop stop-color="#0261A4"/>
<stop offset="0.34375" stop-color="#027FD7"/>
<stop offset="1" stop-color="#0F9AFE"/>
</linearGradient>
<linearGradient id="paint1_linear_206_2" x1="1717" y1="563" x2="1717" y2="117" gradientUnits="userSpaceOnUse">
<stop stop-color="#0261A4"/>
<stop offset="0.34375" stop-color="#027FD7"/>
<stop offset="1" stop-color="#0F9AFE"/>
</linearGradient>
<linearGradient id="paint2_linear_206_2" x1="1000" y1="106" x2="1000" y2="242" gradientUnits="userSpaceOnUse">
<stop stop-color="#0261A4"/>
<stop offset="0.34375" stop-color="#027FD7"/>
<stop offset="1" stop-color="#0F9AFE"/>
</linearGradient>
<linearGradient id="paint3_linear_206_2" x1="1000" y1="79" x2="1000" y2="116" gradientUnits="userSpaceOnUse">
<stop stop-color="#0261A4"/>
<stop offset="0.34375" stop-color="#027FD7"/>
<stop offset="1" stop-color="#0F9AFE"/>
</linearGradient>
<clipPath id="clip0_206_2">
<rect width="2000" height="400" rx="20" fill="white"/>
</clipPath>
</defs>
</svg>
